<?xml version="1.0" encoding="UTF-8" standalone="no"?>
<!-- Generator: Adobe Illustrator 19.0.0, SVG Export Plug-In . SVG Version: 6.00 Build 0)  -->

<svg
   xmlns:dc="http://purl.org/dc/elements/1.1/"
   xmlns:cc="http://creativecommons.org/ns#"
   xmlns:rdf="http://www.w3.org/1999/02/22-rdf-syntax-ns#"
   xmlns:svg="http://www.w3.org/2000/svg"
   xmlns="http://www.w3.org/2000/svg"
   xmlns:sodipodi="http://sodipodi.sourceforge.net/DTD/sodipodi-0.dtd"
   xmlns:inkscape="http://www.inkscape.org/namespaces/inkscape"
   version="1.1"
   id="Layer_1"
   x="0px"
   y="0px"
   viewBox="0 0 382 382"
   style="enable-background:new 0 0 382 382;"
   xml:space="preserve"
   inkscape:version="0.91 r13725"
   sodipodi:docname="Icon-LinkedIn.svg"><metadata
     id="metadata39"><rdf:RDF><cc:Work
         rdf:about=""><dc:format>image/svg+xml</dc:format><dc:type
           rdf:resource="http://purl.org/dc/dcmitype/StillImage" /><dc:title></dc:title></cc:Work></rdf:RDF></metadata><defs
     id="defs37" /><sodipodi:namedview
     pagecolor="#ffffff"
     bordercolor="#666666"
     borderopacity="1"
     objecttolerance="10"
     gridtolerance="10"
     guidetolerance="10"
     inkscape:pageopacity="0"
     inkscape:pageshadow="2"
     inkscape:window-width="1389"
     inkscape:window-height="800"
     id="namedview35"
     showgrid="false"
     inkscape:zoom="0.61780105"
     inkscape:cx="-8.9025424"
     inkscape:cy="191"
     inkscape:window-x="0"
     inkscape:window-y="40"
     inkscape:window-maximized="0"
     inkscape:current-layer="Layer_1" /><g
     id="g5" /><g
     id="g7" /><g
     id="g9" /><g
     id="g11" /><g
     id="g13" /><g
     id="g15" /><g
     id="g17" /><g
     id="g19" /><g
     id="g21" /><g
     id="g23" /><g
     id="g25" /><g
     id="g27" /><g
     id="g29" /><g
     id="g31" /><g
     id="g33" /><rect
     style="fill:#ffffff;fill-rule:evenodd;stroke:#000000;stroke-width:1px;stroke-linecap:butt;stroke-linejoin:miter;stroke-opacity:1"
     id="rect3367"
     width="330.20337"
     height="330.20343"
     x="25.898306"
     y="25.898306" /><path
     inkscape:connector-curvature="0"
     style="fill:#0077b7"
     d="m 347.445,1e-6 -312.890002,0 c -19.083999,0 -34.5549995,15.471 -34.5549995,34.555 l 0,312.888999 C -1.5e-6,366.529 15.470999,382 34.554998,382 L 347.444,382 C 366.529,382 382,366.529 382,347.444 L 382,34.555001 C 382,15.471001 366.529,1e-6 347.445,1e-6 Z M 118.207,329.844 c 0,5.554 -4.502,10.056 -10.056,10.056 l -42.806001,0 c -5.554,0 -10.056,-4.502 -10.056,-10.056 l 0,-179.441 c 0,-5.554 4.502,-10.056 10.056,-10.056 l 42.806001,0 c 5.554,0 10.056,4.502 10.056,10.056 l 0,179.441 z M 86.747999,123.432 c -22.459,0 -40.666,-18.207 -40.666,-40.666001 0,-22.459 18.207,-40.665998 40.666,-40.665998 22.459001,0 40.666001,18.206998 40.666001,40.665998 0,22.459001 -18.206,40.666001 -40.666001,40.666001 z M 341.91,330.654 c 0,5.106 -4.14,9.246 -9.246,9.246 l -45.934,0 c -5.106,0 -9.246,-4.14 -9.246,-9.246 l 0,-84.168 c 0,-12.556 3.683,-55.021 -32.813,-55.021 -28.309,0 -34.051,29.066 -35.204,42.11 l 0,97.079 c 0,5.106 -4.139,9.246 -9.246,9.246 l -44.426,0 c -5.106,0 -9.246,-4.14 -9.246,-9.246 l 0,-181.061 c 0,-5.106 4.14,-9.246 9.246,-9.246 l 44.426,0 c 5.106,0 9.246,4.14 9.246,9.246 l 0,15.655 c 10.497,-15.753 26.097,-27.912 59.312,-27.912 73.552,0 73.131,68.716 73.131,106.472 l 0,86.846 0,0 z"
     id="path3" /></svg>